<svg xmlns="http://www.w3.org/2000/svg" xmlns:xlink="http://www.w3.org/1999/xlink" width="320" zoomAndPan="magnify" viewBox="0 0 240 98.999996" height="132" preserveAspectRatio="xMidYMid meet" version="1.0"><defs><g/></defs><path fill="#33cc33" d="M 77.433594 32.710938 C 68.246094 25.769531 54.964844 27.777344 47.734375 37.183594 C 44.882812 40.90625 43.402344 45.207031 43.226562 49.488281 C 43.773438 46.441406 45.058594 43.476562 47.105469 40.816406 C 53.789062 32.105469 66.070312 30.242188 74.558594 36.667969 C 83.050781 43.089844 84.511719 55.347656 77.828125 64.0625 C 76.171875 66.226562 74.167969 67.957031 71.96875 69.253906 C 75.386719 67.828125 78.523438 65.492188 80.941406 62.3125 C 88.167969 52.90625 86.601562 39.648438 77.433594 32.710938 Z M 77.433594 32.710938 " fill-opacity="1" fill-rule="evenodd"/><path fill="#00ccff" d="M 37.9375 11.972656 C 28.421875 18.414062 26.15625 31.585938 32.886719 41.359375 C 35.519531 45.207031 39.179688 47.976562 43.226562 49.488281 C 40.484375 48.019531 38.046875 45.855469 36.152344 43.109375 C 29.925781 34.070312 32.015625 21.898438 40.832031 15.90625 C 49.628906 9.9375 61.824219 12.425781 68.050781 21.464844 C 69.574219 23.714844 70.597656 26.136719 71.164062 28.601562 C 70.859375 24.945312 69.617188 21.269531 67.351562 17.960938 C 60.625 8.1875 47.453125 5.507812 37.9375 11.972656 Z M 37.9375 11.972656 " fill-opacity="1" fill-rule="evenodd"/><path fill="#ff0000" d="M 5.691406 42.675781 C 8.871094 53.683594 20.738281 59.957031 32.1875 56.691406 C 36.71875 55.390625 40.484375 52.820312 43.226562 49.488281 C 40.941406 51.609375 38.113281 53.230469 34.890625 54.160156 C 24.285156 57.1875 13.3125 51.371094 10.371094 41.1875 C 7.433594 31 13.636719 20.296875 24.242188 17.269531 C 26.855469 16.535156 29.511719 16.316406 32.058594 16.597656 C 28.445312 15.710938 24.546875 15.734375 20.691406 16.835938 C 9.21875 20.082031 2.511719 31.648438 5.691406 42.675781 Z M 5.691406 42.675781 " fill-opacity="1" fill-rule="evenodd"/><path fill="#ffcc00" d="M 24.875 82.726562 C 36.414062 83.199219 46.144531 73.988281 46.625 62.160156 C 46.820312 57.488281 45.535156 53.121094 43.226562 49.488281 C 44.511719 52.300781 45.1875 55.480469 45.058594 58.808594 C 44.601562 69.75 35.609375 78.269531 24.9375 77.839844 C 14.292969 77.40625 6.015625 68.195312 6.453125 57.253906 C 6.5625 54.550781 7.191406 51.976562 8.261719 49.664062 C 6.277344 52.796875 5.058594 56.472656 4.90625 60.453125 C 4.429688 72.28125 13.355469 82.269531 24.875 82.726562 Z M 24.875 82.726562 " fill-opacity="1" fill-rule="evenodd"/><path fill="#1a1a1a" d="M 69.203125 77.234375 C 73.277344 66.527344 67.550781 54.460938 56.378906 50.269531 C 51.980469 48.625 47.410156 48.453125 43.226562 49.488281 C 46.320312 49.164062 49.5625 49.511719 52.699219 50.699219 C 63.019531 54.570312 68.332031 65.730469 64.566406 75.652344 C 60.800781 85.558594 49.367188 90.464844 39.046875 86.597656 C 36.5 85.621094 34.257812 84.238281 32.386719 82.507812 C 34.738281 85.363281 37.894531 87.65625 41.640625 89.0625 C 52.785156 93.257812 65.132812 87.957031 69.203125 77.234375 Z M 69.203125 77.234375 " fill-opacity="1" fill-rule="evenodd"/><g fill="#000000" fill-opacity="1"><g transform="translate(96.420525, 70.450002)"><g><path d="M 18.8125 -18.875 C 15.726562 -19.875 13.078125 -20.984375 10.859375 -22.203125 C 8.640625 -23.421875 6.851562 -24.945312 5.5 -26.78125 C 4.144531 -28.613281 3.46875 -30.8125 3.46875 -33.375 C 3.46875 -35.914062 4.203125 -38.148438 5.671875 -40.078125 C 7.140625 -42.003906 9.171875 -43.492188 11.765625 -44.546875 C 14.359375 -45.597656 17.3125 -46.125 20.625 -46.125 C 23.9375 -46.125 26.867188 -45.539062 29.421875 -44.375 C 31.972656 -43.207031 33.953125 -41.554688 35.359375 -39.421875 C 36.765625 -37.285156 37.46875 -34.820312 37.46875 -32.03125 L 27.34375 -32.03125 C 27.34375 -33.882812 26.753906 -35.359375 25.578125 -36.453125 C 24.398438 -37.546875 22.675781 -38.09375 20.40625 -38.09375 C 18.21875 -38.09375 16.535156 -37.640625 15.359375 -36.734375 C 14.179688 -35.828125 13.59375 -34.675781 13.59375 -33.28125 C 13.59375 -31.945312 14.300781 -30.804688 15.71875 -29.859375 C 17.132812 -28.910156 19.320312 -27.976562 22.28125 -27.0625 C 27.382812 -25.476562 31.191406 -23.507812 33.703125 -21.15625 C 36.210938 -18.800781 37.46875 -15.789062 37.46875 -12.125 C 37.46875 -9.457031 36.785156 -7.164062 35.421875 -5.25 C 34.054688 -3.332031 32.125 -1.875 29.625 -0.875 C 27.125 0.125 24.1875 0.625 20.8125 0.625 C 17.582031 0.625 14.546875 0.0703125 11.703125 -1.03125 C 8.859375 -2.132812 6.546875 -3.832031 4.765625 -6.125 C 2.984375 -8.414062 2.09375 -11.25 2.09375 -14.625 L 12.25 -14.625 C 12.25 -12.039062 12.976562 -10.1875 14.4375 -9.0625 C 15.894531 -7.9375 18.019531 -7.375 20.8125 -7.375 C 22.957031 -7.375 24.578125 -7.8125 25.671875 -8.6875 C 26.765625 -9.5625 27.3125 -10.6875 27.3125 -12.0625 C 27.3125 -13.101562 27.09375 -13.976562 26.65625 -14.6875 C 26.21875 -15.394531 25.390625 -16.078125 24.171875 -16.734375 C 22.953125 -17.390625 21.164062 -18.101562 18.8125 -18.875 Z M 18.8125 -18.875 "/></g></g></g><g fill="#000000" fill-opacity="1"><g transform="translate(134.697601, 70.450002)"><g><path d="M 18.09375 -45.5 C 22.15625 -45.5 25.769531 -44.582031 28.9375 -42.75 C 32.101562 -40.914062 34.578125 -38.347656 36.359375 -35.046875 C 38.140625 -31.742188 39.03125 -27.96875 39.03125 -23.71875 L 39.03125 -21.75 C 39.03125 -17.5 38.144531 -13.726562 36.375 -10.4375 C 34.601562 -7.144531 32.128906 -4.582031 28.953125 -2.75 C 25.773438 -0.914062 22.15625 0 18.09375 0 L 3.78125 0 L 3.78125 -45.5 Z M 28.71875 -23.78125 C 28.71875 -28.195312 27.8125 -31.554688 26 -33.859375 C 24.1875 -36.160156 21.550781 -37.3125 18.09375 -37.3125 L 13.9375 -37.3125 L 13.9375 -8.15625 L 18.09375 -8.15625 C 21.53125 -8.15625 24.160156 -9.3125 25.984375 -11.625 C 27.804688 -13.9375 28.71875 -17.3125 28.71875 -21.75 Z M 28.71875 -23.78125 "/></g></g></g><g fill="#000000" fill-opacity="1"><g transform="translate(174.787067, 70.450002)"><g><path d="M 54.875 -45.5 L 45 0 L 34.65625 0 L 27.875 -28.78125 L 21.15625 0 L 10.8125 0 L 0.90625 -45.5 L 10.96875 -45.5 L 16.6875 -14.46875 L 23.59375 -45.5 L 32.1875 -45.5 L 39.15625 -14.40625 L 44.84375 -45.5 Z M 54.875 -45.5 "/></g></g></g></svg>