<svg xmlns="http://www.w3.org/2000/svg" xmlns:xlink="http://www.w3.org/1999/xlink" width="320" zoomAndPan="magnify" viewBox="0 0 240 98.999996" height="132" preserveAspectRatio="xMidYMid meet" version="1.0"><defs><g/></defs><path fill="#33cc33" d="M 77.117188 32.78125 C 67.96875 25.820312 54.742188 27.839844 47.542969 37.269531 C 44.703125 41 43.230469 45.3125 43.054688 49.605469 C 43.597656 46.550781 44.875 43.578125 46.914062 40.914062 C 53.570312 32.175781 65.800781 30.308594 74.253906 36.75 C 82.710938 43.1875 84.164062 55.480469 77.507812 64.21875 C 75.859375 66.386719 73.867188 68.121094 71.675781 69.421875 C 75.078125 67.992188 78.203125 65.652344 80.609375 62.464844 C 87.808594 53.03125 86.246094 39.742188 77.117188 32.78125 Z M 77.117188 32.78125 " fill-opacity="1" fill-rule="evenodd"/><path fill="#00ccff" d="M 37.785156 11.988281 C 28.3125 18.449219 26.058594 31.652344 32.757812 41.453125 C 35.378906 45.3125 39.023438 48.089844 43.054688 49.605469 C 40.324219 48.132812 37.894531 45.964844 36.007812 43.210938 C 29.808594 34.148438 31.890625 21.941406 40.671875 15.933594 C 49.429688 9.949219 61.570312 12.445312 67.773438 21.507812 C 69.289062 23.761719 70.308594 26.191406 70.875 28.664062 C 70.570312 24.996094 69.332031 21.3125 67.078125 17.996094 C 60.378906 8.195312 47.261719 5.507812 37.785156 11.988281 Z M 37.785156 11.988281 " fill-opacity="1" fill-rule="evenodd"/><path fill="#ff0000" d="M 5.675781 42.777344 C 8.84375 53.8125 20.660156 60.101562 32.0625 56.828125 C 36.574219 55.527344 40.324219 52.945312 43.054688 49.605469 C 40.777344 51.730469 37.960938 53.359375 34.75 54.289062 C 24.191406 57.324219 13.265625 51.492188 10.339844 41.28125 C 7.410156 31.070312 13.589844 20.335938 24.148438 17.300781 C 26.75 16.5625 29.394531 16.347656 31.933594 16.628906 C 28.332031 15.738281 24.453125 15.761719 20.613281 16.867188 C 9.1875 20.121094 2.511719 31.71875 5.675781 42.777344 Z M 5.675781 42.777344 " fill-opacity="1" fill-rule="evenodd"/><path fill="#ffcc00" d="M 24.777344 82.929688 C 36.269531 83.410156 45.960938 74.171875 46.4375 62.3125 C 46.632812 57.628906 45.355469 53.25 43.054688 49.605469 C 44.335938 52.425781 45.007812 55.613281 44.875 58.953125 C 44.421875 69.921875 35.46875 78.464844 24.84375 78.03125 C 14.242188 77.597656 6 68.363281 6.433594 57.390625 C 6.542969 54.679688 7.171875 52.101562 8.234375 49.78125 C 6.261719 52.925781 5.046875 56.609375 4.894531 60.597656 C 4.417969 72.460938 13.308594 82.476562 24.777344 82.929688 Z M 24.777344 82.929688 " fill-opacity="1" fill-rule="evenodd"/><path fill="#ffffff" d="M 68.921875 77.425781 C 72.976562 66.691406 67.273438 54.59375 56.152344 50.386719 C 51.773438 48.738281 47.21875 48.566406 43.054688 49.605469 C 46.132812 49.28125 49.363281 49.628906 52.488281 50.820312 C 62.765625 54.703125 68.054688 65.890625 64.304688 75.839844 C 60.554688 85.773438 49.167969 90.695312 38.894531 86.8125 C 36.355469 85.835938 34.121094 84.449219 32.257812 82.714844 C 34.601562 85.578125 37.742188 87.875 41.472656 89.285156 C 52.574219 93.492188 64.867188 88.179688 68.921875 77.425781 Z M 68.921875 77.425781 " fill-opacity="1" fill-rule="evenodd"/><g fill="#ffffff" fill-opacity="1"><g transform="translate(99.513491, 70.450002)"><g><path d="M 18.8125 -18.875 C 15.726562 -19.875 13.078125 -20.984375 10.859375 -22.203125 C 8.640625 -23.421875 6.851562 -24.945312 5.5 -26.78125 C 4.144531 -28.613281 3.46875 -30.8125 3.46875 -33.375 C 3.46875 -35.914062 4.203125 -38.148438 5.671875 -40.078125 C 7.140625 -42.003906 9.171875 -43.492188 11.765625 -44.546875 C 14.359375 -45.597656 17.3125 -46.125 20.625 -46.125 C 23.9375 -46.125 26.867188 -45.539062 29.421875 -44.375 C 31.972656 -43.207031 33.953125 -41.554688 35.359375 -39.421875 C 36.765625 -37.285156 37.46875 -34.820312 37.46875 -32.03125 L 27.34375 -32.03125 C 27.34375 -33.882812 26.753906 -35.359375 25.578125 -36.453125 C 24.398438 -37.546875 22.675781 -38.09375 20.40625 -38.09375 C 18.21875 -38.09375 16.535156 -37.640625 15.359375 -36.734375 C 14.179688 -35.828125 13.59375 -34.675781 13.59375 -33.28125 C 13.59375 -31.945312 14.300781 -30.804688 15.71875 -29.859375 C 17.132812 -28.910156 19.320312 -27.976562 22.28125 -27.0625 C 27.382812 -25.476562 31.191406 -23.507812 33.703125 -21.15625 C 36.210938 -18.800781 37.46875 -15.789062 37.46875 -12.125 C 37.46875 -9.457031 36.785156 -7.164062 35.421875 -5.25 C 34.054688 -3.332031 32.125 -1.875 29.625 -0.875 C 27.125 0.125 24.1875 0.625 20.8125 0.625 C 17.582031 0.625 14.546875 0.0703125 11.703125 -1.03125 C 8.859375 -2.132812 6.546875 -3.832031 4.765625 -6.125 C 2.984375 -8.414062 2.09375 -11.25 2.09375 -14.625 L 12.25 -14.625 C 12.25 -12.039062 12.976562 -10.1875 14.4375 -9.0625 C 15.894531 -7.9375 18.019531 -7.375 20.8125 -7.375 C 22.957031 -7.375 24.578125 -7.8125 25.671875 -8.6875 C 26.765625 -9.5625 27.3125 -10.6875 27.3125 -12.0625 C 27.3125 -13.101562 27.09375 -13.976562 26.65625 -14.6875 C 26.21875 -15.394531 25.390625 -16.078125 24.171875 -16.734375 C 22.953125 -17.390625 21.164062 -18.101562 18.8125 -18.875 Z M 18.8125 -18.875 "/></g></g></g><g fill="#ffffff" fill-opacity="1"><g transform="translate(137.790567, 70.450002)"><g><path d="M 18.09375 -45.5 C 22.15625 -45.5 25.769531 -44.582031 28.9375 -42.75 C 32.101562 -40.914062 34.578125 -38.347656 36.359375 -35.046875 C 38.140625 -31.742188 39.03125 -27.96875 39.03125 -23.71875 L 39.03125 -21.75 C 39.03125 -17.5 38.144531 -13.726562 36.375 -10.4375 C 34.601562 -7.144531 32.128906 -4.582031 28.953125 -2.75 C 25.773438 -0.914062 22.15625 0 18.09375 0 L 3.78125 0 L 3.78125 -45.5 Z M 28.71875 -23.78125 C 28.71875 -28.195312 27.8125 -31.554688 26 -33.859375 C 24.1875 -36.160156 21.550781 -37.3125 18.09375 -37.3125 L 13.9375 -37.3125 L 13.9375 -8.15625 L 18.09375 -8.15625 C 21.53125 -8.15625 24.160156 -9.3125 25.984375 -11.625 C 27.804688 -13.9375 28.71875 -17.3125 28.71875 -21.75 Z M 28.71875 -23.78125 "/></g></g></g><g fill="#ffffff" fill-opacity="1"><g transform="translate(177.880033, 70.450002)"><g><path d="M 54.875 -45.5 L 45 0 L 34.65625 0 L 27.875 -28.78125 L 21.15625 0 L 10.8125 0 L 0.90625 -45.5 L 10.96875 -45.5 L 16.6875 -14.46875 L 23.59375 -45.5 L 32.1875 -45.5 L 39.15625 -14.40625 L 44.84375 -45.5 Z M 54.875 -45.5 "/></g></g></g></svg>