<svg xmlns="http://www.w3.org/2000/svg" version="1.1" xmlns:xlink="http://www.w3.org/1999/xlink" xmlns:svgjs="http://svgjs.dev/svgjs" width="60" height="60"><svg xmlns="http://www.w3.org/2000/svg" xmlns:xlink="http://www.w3.org/1999/xlink" width="60" zoomAndPan="magnify" viewBox="0 0 45 44.999999" height="60" preserveAspectRatio="xMidYMid meet" version="1.0"><path fill="#33cc33" d="M 36.828125 30.105469 C 32.671875 33.308594 26.667969 32.382812 23.398438 28.039062 C 22.109375 26.324219 21.441406 24.335938 21.359375 22.363281 C 21.605469 23.769531 22.1875 25.136719 23.113281 26.363281 C 26.136719 30.386719 31.6875 31.242188 35.527344 28.28125 C 39.367188 25.316406 40.027344 19.65625 37.003906 15.632812 C 36.257812 14.636719 35.351562 13.839844 34.355469 13.238281 C 35.902344 13.898438 37.320312 14.976562 38.414062 16.441406 C 41.679688 20.785156 40.972656 26.902344 36.828125 30.105469 Z M 36.828125 30.105469 " fill-opacity="1" fill-rule="evenodd"></path><path fill="#00ccff" d="M 18.96875 39.675781 C 14.667969 36.703125 13.640625 30.625 16.683594 26.113281 C 17.875 24.335938 19.53125 23.058594 21.359375 22.363281 C 20.121094 23.039062 19.019531 24.039062 18.160156 25.304688 C 15.34375 29.476562 16.289062 35.097656 20.277344 37.859375 C 24.253906 40.617188 29.769531 39.46875 32.585938 35.296875 C 33.273438 34.257812 33.738281 33.140625 33.992188 32.003906 C 33.855469 33.6875 33.292969 35.386719 32.269531 36.914062 C 29.226562 41.421875 23.269531 42.660156 18.96875 39.675781 Z M 18.96875 39.675781 " fill-opacity="1" fill-rule="evenodd"></path><path fill="#ff0000" d="M 4.386719 25.503906 C 5.824219 20.425781 11.191406 17.53125 16.371094 19.039062 C 18.417969 19.636719 20.121094 20.824219 21.359375 22.363281 C 20.328125 21.382812 19.046875 20.636719 17.589844 20.207031 C 12.796875 18.808594 7.832031 21.492188 6.503906 26.195312 C 5.175781 30.894531 7.980469 35.835938 12.777344 37.230469 C 13.957031 37.570312 15.160156 37.671875 16.308594 37.542969 C 14.675781 37.949219 12.914062 37.941406 11.171875 37.429688 C 5.984375 35.933594 2.949219 30.59375 4.386719 25.503906 Z M 4.386719 25.503906 " fill-opacity="1" fill-rule="evenodd"></path><path fill="#ffcc00" d="M 13.0625 7.023438 C 18.28125 6.800781 22.679688 11.054688 22.898438 16.511719 C 22.984375 18.667969 22.40625 20.683594 21.359375 22.363281 C 21.941406 21.0625 22.246094 19.597656 22.1875 18.058594 C 21.980469 13.011719 17.914062 9.078125 13.089844 9.277344 C 8.277344 9.476562 4.535156 13.726562 4.730469 18.777344 C 4.78125 20.027344 5.066406 21.214844 5.550781 22.28125 C 4.652344 20.835938 4.101562 19.136719 4.035156 17.300781 C 3.816406 11.84375 7.851562 7.230469 13.0625 7.023438 Z M 13.0625 7.023438 " fill-opacity="1" fill-rule="evenodd"></path><path fill="#1a1a1a" d="M 33.105469 9.558594 C 34.949219 14.496094 32.359375 20.066406 27.308594 22.003906 C 25.320312 22.761719 23.25 22.839844 21.359375 22.363281 C 22.757812 22.511719 24.226562 22.351562 25.644531 21.800781 C 30.308594 20.015625 32.710938 14.867188 31.007812 10.285156 C 29.304688 5.714844 24.136719 3.449219 19.46875 5.234375 C 18.320312 5.683594 17.304688 6.324219 16.457031 7.121094 C 17.519531 5.804688 18.949219 4.746094 20.640625 4.097656 C 25.683594 2.160156 31.265625 4.605469 33.105469 9.558594 Z M 33.105469 9.558594 " fill-opacity="1" fill-rule="evenodd"></path></svg><style>@media (prefers-color-scheme: light) { :root { filter: none; } }
@media (prefers-color-scheme: dark) { :root { filter: none; } }
</style></svg>